<svg width="676" height="171" viewBox="0 0 676 171" fill="none" xmlns="http://www.w3.org/2000/svg">
<path d="M359.077 69.0107C352.324 71.2601 345.599 69.0071 338.952 68.5111C317.565 66.9141 296.207 66.3352 274.813 67.893C268.183 68.3751 261.756 68.5646 255.936 64.3603C254.523 63.3386 250.52 60.5523 252.142 66.4678C252.827 68.9586 250.782 68.4877 249.488 68.665C237.352 70.3294 225.23 72.9318 213.068 73.1576C207.886 73.2481 204.118 75.7433 199.653 76.3212C186.125 78.0725 173.747 83.7641 160.679 87.0643C152.781 89.0566 145.428 93.179 137.535 96.4665C136.711 94.1209 140.284 94.0706 139.358 92.3615C138.547 90.8584 136.407 90.5423 135.521 91.333C131.958 94.5187 125.682 94.6385 124.775 100.875C124.714 101.418 124.527 101.939 124.229 102.396C123.931 102.854 123.53 103.236 123.058 103.511C122.586 103.786 122.057 103.947 121.512 103.982C120.967 104.016 120.421 103.922 119.919 103.709C117.282 102.21 115.706 100.491 115.792 105.254C115.8 105.67 115.372 106.093 115.151 106.514C106.812 101.553 107.008 111.568 102.677 113.608C91.325 118.952 81.3347 126.609 69.9747 132.17C61.798 136.174 54.0104 142.72 46.8649 149.427C41.8539 154.132 36.1656 158.911 29.8254 162.075C26.2657 163.851 22.8299 165.621 20.2933 168.539C16.8522 172.495 13.3601 170.573 9.67054 169.444C5.09433 168.045 8.09235 165.342 8.47352 163.099C9.16387 159.034 5.08704 157.434 3.4473 154.92C-3.58428 144.165 1.53565 135.014 6.45309 126.445C14.397 112.601 26.2933 101.877 37.9787 91.1852C75.0735 57.2459 118.085 33.4846 165.945 18.7533C210.744 4.96087 256.892 -0.359038 303.696 0.0186805C323.279 0.174307 342.732 2.52292 362.232 3.98654C378.15 5.18159 393.973 6.50462 409.713 9.02851C435.347 13.1375 460.821 17.9813 486.001 24.416C527.818 35.1017 569.157 47.195 608.408 65.4354C628.978 75.0311 648.124 87.4221 665.304 102.257C668.333 104.73 670.914 107.705 672.935 111.052C674.372 113.559 676.84 116.24 674.872 119.03C673.043 121.623 669.915 122.885 665.501 121.077C670.724 126.518 675.724 131.393 666.375 136.202C664.987 136.918 665.536 137.992 665.561 139.23C665.691 145.658 662.423 148.311 655.78 147.463C656.363 149.121 659.839 149.613 658.011 152.056C656.759 153.734 654.777 152.637 653.317 151.901C637.453 143.896 621.102 136.988 604.796 129.952C575.542 117.24 545.605 106.163 515.121 96.7732C487.015 88.1924 458.621 80.9753 429.976 74.6647C418.61 72.319 407.093 70.7766 395.511 70.0489C484.489 85.2169 570.664 113.744 651.116 154.665C647.4 156.46 644.637 153.991 641.856 152.762C573.748 122.628 504.207 96.8529 431.065 81.5504C409.445 77.0268 387.609 74.1751 365.796 71.0745C363.377 70.7984 361.019 70.132 358.814 69.1015C358.857 63.9188 363.014 67.3588 364.058 67.4197C373.243 67.958 382.385 69.2484 393.042 70.4897C384.355 65.5256 327.413 60.4067 321.258 63.8376C328.261 62.7897 335.173 63.8545 342.032 64.6734C347.825 65.362 354.353 63.8938 359.077 69.0107ZM573.982 68.7773C593.446 77.4577 612.675 86.21 630.469 97.7443C637.197 102.107 643.753 106.734 650.448 111.148C651.964 112.148 653.98 114.269 655.511 112.461C657.349 110.289 654.278 109.411 653.138 108.093C652.785 107.757 652.395 107.462 651.974 107.215C628.053 90.0908 601.64 77.986 573.982 68.7773ZM647.25 142.992C635.76 133.699 567.073 103.721 551.442 100.915C583.536 115.338 616.475 126.685 647.25 142.992ZM636.232 119.221C620.251 109.022 603.179 100.643 585.333 94.2435L636.232 119.221Z" fill="#929a4c"/>
</svg>
